<?xml version="1.0" encoding="UTF-8" standalone="no"?>
<!-- Created with Inkscape (http://www.inkscape.org/) -->

<svg
   xmlns:dc="http://purl.org/dc/elements/1.1/"
   xmlns:cc="http://creativecommons.org/ns#"
   xmlns:rdf="http://www.w3.org/1999/02/22-rdf-syntax-ns#"
   xmlns:svg="http://www.w3.org/2000/svg"
   xmlns="http://www.w3.org/2000/svg"
   xmlns:sodipodi="http://sodipodi.sourceforge.net/DTD/sodipodi-0.dtd"
   xmlns:inkscape="http://www.inkscape.org/namespaces/inkscape"
   width="20mm"
   height="20mm"
   viewBox="0 0 20 20"
   version="1.1"
   id="svg1139"
   sodipodi:docname="True icon.svg"
   inkscape:version="0.92.3 (2405546, 2018-03-11)">
  <title
     id="title200">True icon</title>

  <g
     inkscape:label="Calque 1"
     inkscape:groupmode="layer"
     id="layer1"
     transform="translate(-94.396751,-146.55367)">
    <path
       style="fill:#F2F2F2;fill-opacity:1;"
       d="m 104.61513,150.77928 c -0.17843,0.004 -0.35601,0.0162 -0.53175,0.0367 -2.10888,0.24614 -3.99065,1.65661 -4.755789,3.76411 -1.020178,2.81 0.276209,5.94455 2.980699,7.20886 2.70449,1.26432 5.93387,0.24226 7.42539,-2.34766 a 0.46954697,0.46954697 0 1 0 -0.81235,-0.46664 c -1.25303,2.17581 -3.94635,3.02609 -6.21668,1.96474 -2.27034,-1.06136 -3.35164,-3.6783 -2.49442,-6.03942 0.85721,-2.36111 3.36207,-3.66732 5.78156,-3.01739 a 0.47022112,0.47022112 0 0 0 0.24391,-0.90796 c -0.54049,-0.14518 -1.08527,-0.20775 -1.62057,-0.19533 z m 3.06441,2.99051 c -0.098,1e-5 -0.19616,0.0378 -0.2713,0.11317 l -2.66495,2.67167 -1.06092,-1.06401 c -0.15028,-0.15065 -0.39232,-0.15064 -0.5426,0 l -0.64803,0.65009 c -0.15027,0.15064 -0.15023,0.39298 0,0.54363 l 1.33222,1.33532 0.64803,0.64957 c 0.15027,0.15065 0.39232,0.15063 0.5426,0 l 0.64802,-0.64957 2.93574,-2.94349 c 0.15027,-0.15064 0.15022,-0.39299 0,-0.54363 l -0.64802,-0.64958 c -0.0751,-0.0753 -0.17277,-0.11317 -0.27079,-0.11317 z"
       id="path7573-1"
       inkscape:connector-curvature="0" />
  </g>
</svg>
