<svg xmlns="http://www.w3.org/2000/svg" xmlns:xlink="http://www.w3.org/1999/xlink" version="1.1" x="0px" y="0px" viewBox="0 0 48 60" style="enable-background:new 0 0 48 48;" xml:space="preserve"><g><path d="M43.36,7.93H13.72c-0.83,0-1.5,0.67-1.5,1.5s0.67,1.5,1.5,1.5h29.64c0.83,0,1.5-0.67,1.5-1.5S44.19,7.93,43.36,7.93z"/><path d="M43.36,22.5H13.72c-0.83,0-1.5,0.67-1.5,1.5s0.67,1.5,1.5,1.5h29.64c0.83,0,1.5-0.67,1.5-1.5S44.19,22.5,43.36,22.5z"/><path d="M43.36,37.07H13.72c-0.83,0-1.5,0.67-1.5,1.5s0.67,1.5,1.5,1.5h29.64c0.83,0,1.5-0.67,1.5-1.5S44.19,37.07,43.36,37.07z"/><path d="M5.53,7.06c-1.32,0-2.39,1.07-2.39,2.39s1.07,2.39,2.39,2.39s2.39-1.07,2.39-2.39S6.84,7.06,5.53,7.06z"/><path d="M5.53,21.61c-1.32,0-2.39,1.07-2.39,2.39s1.07,2.39,2.39,2.39S7.91,25.32,7.91,24S6.84,21.61,5.53,21.61z"/><path d="M5.53,36.16c-1.32,0-2.39,1.07-2.39,2.39s1.07,2.39,2.39,2.39s2.39-1.07,2.39-2.39S6.84,36.16,5.53,36.16z"/></g></svg>