<svg xmlns="http://www.w3.org/2000/svg" xmlns:xlink="http://www.w3.org/1999/xlink" version="1.1" x="0px" y="0px" viewBox="0 0 25 32.5" style="enable-background:new 0 0 25 26;" xml:space="preserve"><g><path style="fill:#9356DC;" d="M20,12.946c-0.636,0.649-1.522,1.053-2.5,1.053c-0.979,0-1.864-0.403-2.5-1.053c-0.636,0.649-1.522,1.053-2.5,1.053   c-0.979,0-1.864-0.403-2.5-1.053c-0.636,0.649-1.522,1.053-2.5,1.053c-0.979,0-1.864-0.403-2.5-1.053   c-0.636,0.649-1.522,1.053-2.5,1.053c-0.539,0-1.043-0.133-1.5-0.351V25H0v1h25v-1h-1V13.648c-0.457,0.218-0.961,0.351-1.5,0.351   C21.521,13.999,20.636,13.596,20,12.946z M15,17h5v8h-5V17z M5,17h6v4H5V17z"/><polygon style="fill:#9356DC;" points="20.999,3 20.999,0 4.001,0 4.001,3 4,3 21,3  "/><polygon style="fill:#9356DC;" points="21.801,4 3.199,4 0.799,7 24.201,7  "/><path style="fill:#9356DC;" d="M0,10.499c0,1.381,1.119,2.5,2.5,2.5c1.381,0,2.5-1.119,2.5-2.5c0,1.381,1.119,2.5,2.5,2.5c1.381,0,2.5-1.119,2.5-2.5   c0,1.381,1.119,2.5,2.5,2.5c1.381,0,2.5-1.119,2.5-2.5c0,1.381,1.119,2.5,2.5,2.5c1.381,0,2.5-1.119,2.5-2.5   c0,1.381,1.119,2.5,2.5,2.5c1.381,0,2.5-1.119,2.5-2.5V8H0V10.499z"/></g></svg>